<?xml version="1.0" encoding="UTF-8"?>
<svg width="200px" height="84px" xmlns="http://www.w3.org/2000/svg" id="Layer_1" data-name="Layer 1" viewBox="0 0 206 87">
  <defs>
    <style>.cls-1{fill:#302e3f;}</style>
  </defs>
  <path class="cls-1" d="M58.59,35.58a13.86,13.86,0,0,1,3.73,9.75,13.86,13.86,0,0,1-3.73,9.76A12.4,12.4,0,0,1,49.22,59a10.74,10.74,0,0,1-8.83-4.37v3.74H35.1V21.6h5.34V36a10.79,10.79,0,0,1,8.83-4.42A12.16,12.16,0,0,1,58.59,35.58ZM54.51,51.5a8.84,8.84,0,0,0,2.33-6.21,8.84,8.84,0,0,0-2.33-6.22,7.58,7.58,0,0,0-6-2.52,7.9,7.9,0,0,0-6.07,2.57,9.54,9.54,0,0,0,0,12.38A7.86,7.86,0,0,0,48.54,54,7.55,7.55,0,0,0,54.51,51.5Z"></path>
  <path class="cls-1" d="M92.12,47.37H71.69c.78,4.08,3.64,6.84,8.69,6.84a16.31,16.31,0,0,0,8.88-2.81l2.23,3.93A19.73,19.73,0,0,1,80.18,59c-9.8,0-14-6.84-14-13.73a13.47,13.47,0,0,1,3.69-9.76,12.86,12.86,0,0,1,9.66-3.88,12.55,12.55,0,0,1,9.22,3.54c2.37,2.38,3.59,5.58,3.59,9.66A16.85,16.85,0,0,1,92.12,47.37ZM71.69,43H86.93a7.26,7.26,0,0,0-7.42-6.79C75.48,36.21,72.47,38.93,71.69,43Z"></path>
  <path class="cls-1" d="M118,32.23h5.15V58.39H118V54.8A11.26,11.26,0,0,1,109.06,59a12.24,12.24,0,0,1-9.36-4A14,14,0,0,1,96,45.14a13.37,13.37,0,0,1,3.69-9.71,12.47,12.47,0,0,1,9.36-3.83A11.16,11.16,0,0,1,118,35.87Zm-2.13,19.32a8.77,8.77,0,0,0,2.37-6.26,8.74,8.74,0,0,0-2.37-6.22,8.45,8.45,0,0,0-12.14,0,9,9,0,0,0-2.32,6.26,8.92,8.92,0,0,0,2.32,6.26,7.87,7.87,0,0,0,6.07,2.53A8,8,0,0,0,115.86,51.55Z"></path>
  <path class="cls-1" d="M168.27,34.56a11.3,11.3,0,0,1,2.91,8.2V58.39h-5.34V43.64c0-4.61-2.32-7.14-6-7.14-3.89,0-6.56,2.87-6.56,7.28V58.39H148V43.73c0-4.51-2.33-7.23-6-7.23-3.88,0-6.6,2.91-6.6,7.38V58.39H130V32.23h5.24V36a8.9,8.9,0,0,1,7.91-4.52,8.77,8.77,0,0,1,8.06,4.81,11.06,11.06,0,0,1,9.46-4.81A9.83,9.83,0,0,1,168.27,34.56Z"></path>
  <rect class="cls-1" x="34.68" y="61.29" width="136.63" height="4.1"></rect>
</svg>
