<?xml version="1.0" encoding="UTF-8"?>
<svg width="200px" height="84px" xmlns="http://www.w3.org/2000/svg" id="Layer_1" data-name="Layer 1" viewBox="0 0 206 87">
  <defs>
    <style>.cls-1{fill:#302e3f;fill-rule:evenodd;}</style>
  </defs>
  <path class="cls-1" d="M21.93,37.64l17.6-9.12,17.8,9.12-17.8,9.15Zm105.68,4.43v-.22c0-3,1.77-4,4.75-3.75V32.61c-7.14-.43-10.52,3.13-10.52,9.24v.22h-3.23v5.49h3.23V64.18h5.77V47.56h6.64V64.18H140V47.56h4.74V42.07H140v-.22c0-3,1.73-4,4.74-3.75V32.61c-7.13-.43-10.52,3.13-10.52,9.24v.22h-6.64Zm-40.35,6a7.65,7.65,0,0,0,2.95-6.21c0-5.18-4.22-8.71-9.53-8.71H68.36v31H81.67c5.44,0,9.78-3.66,9.78-9A8,8,0,0,0,87.26,48.09Zm-6.55-9.18a3.25,3.25,0,0,1,3.35,3.41,3.29,3.29,0,0,1-3.35,3.41H74.53V38.91Zm.93,19.53H74.53V51.16h7.11a3.64,3.64,0,0,1,0,7.28ZM109.45,42V54c0,3.84-2.11,5.49-4.93,5.49-2.61,0-4.44-1.55-4.44-4.56V42H94.31V55.62c0,5.89,3.69,9.15,8.47,9.15,3,0,5.34-1.12,6.64-3.1v2.48h5.77V42Zm59.26,13.4H151.82c.84,2.91,3.26,4.15,6.27,4.15a6.22,6.22,0,0,0,5-2.2L167.77,60A11.3,11.3,0,0,1,158,64.77c-7.51,0-12.26-5.09-12.26-11.69a11.35,11.35,0,0,1,11.82-11.69c6.61,0,11.33,5.18,11.33,11.69A14.38,14.38,0,0,1,168.71,55.44Zm-11.12-8.87A5.55,5.55,0,0,0,151.73,51h11.42A5.41,5.41,0,0,0,157.59,46.57Zm19.68-.72V42H171.5V64.15h5.77V53.58c0-4.66,3.79-6,6.8-5.62V41.6C181.25,41.6,178.42,42.85,177.27,45.85ZM39.53,62.43l-12-6.51-5.59,3,17.6,9.53L57.33,59l-5.66-3Zm-12-16.78,12,5.9,12.14-5.9,5.66,2.75-17.8,8.66L21.93,48.4Z"></path>
</svg>
