<?xml version="1.0" encoding="UTF-8"?>
<!-- Generator: Adobe Illustrator 24.1.0, SVG Export Plug-In . SVG Version: 6.00 Build 0)  -->
<svg xmlns="http://www.w3.org/2000/svg" xmlns:xlink="http://www.w3.org/1999/xlink" version="1.1" id="Layer_2" x="0px" y="0px" width="200px" height="84px" viewBox="0 0 200 84" style="enable-background:new 0 0 200 84;" xml:space="preserve">
<style type="text/css">
	.st0{fill-rule:evenodd;clip-rule:evenodd;fill:#302E3F;}
</style>
<path class="st0" d="M176.6,7.6c-1.7,0.2-3.4,0.5-5.1,0.5c-1,0-2,0-3.1-0.1c-0.9,0-1.7-0.1-2.6-0.1c-0.9,0-1.8,0-2.7,0.1  c-1.4,0-2.8,0.1-4.2,0h-4c-2-0.2-3.9-0.1-5.9,0.1c-1.4,0.1-2.8,0.2-4.2,0.2c-2.5,0-5-0.2-7.5-0.2c-2,0-4,0-5.9,0.1h-2.8L120.3,8  c-0.2,0-0.5,0-0.7-0.1c-0.3,0-0.5-0.1-0.8-0.1c-1.4,0.2-2.8,0.3-4.2,0.4c-1.4,0-3.1-0.4-4.6-0.4c-0.8,0-1.7,0.1-2.5,0.2  c-0.9,0.1-1.7,0.2-2.6,0.2c-2.2,0-4.3-0.2-6.5-0.2c-1.2,0-2.3,0.1-3.5,0.2h-1.8c-1.6-0.1-3.1-0.3-4.7-0.3c-1.1,0-2.2,0.3-3.3,0.4  c-0.6,0-1.1-0.1-1.5-0.2c-0.4-0.1-0.7-0.2-1.1-0.2c-2.4,0-4.9,0.3-7.3,0.3c-2.5,0-4.9,0-7.3-0.2c-2.9-0.1-5.8-0.2-8.8-0.3  c-0.3,0-0.6,0.1-0.9,0.2C57.7,7.9,57.4,8,57,8c-1.1,0-2.3-0.2-3.4-0.2h-10c0,0-3.7,0.2-5.5,0.2c-2.5,0-5.1-0.1-7.6-0.2  c-0.4,0-0.8,0.1-1.2,0.1h-9.9c0,0-1.1-0.9-1.2-1.4C18,6.3,18,6,18.1,5.7c0.1-0.3,0.3-0.5,0.5-0.6c0.1-0.1,0.3-0.1,0.5-0.1  c1.7,0,3.4,0.2,5.1,0.3c0.3,0.1,0.5,0.1,0.8,0c1.2-0.4,2.4-0.2,3.6-0.1c1,0.1,1.9,0.2,2.9,0C32.6,5.1,33.8,5,35,5  c0.6,0,1.2,0.2,1.8,0.2h9.9l9.4-0.1c0.4,0,0.7,0,1.1,0c0.7,0,1.4,0,2.2,0c1.6,0,3.2,0.2,4.7,0.2s3.6-0.3,5.3-0.3  c1.3,0,2.7,0.2,4.1,0.3c1.4,0,2.6,0.1,3.8,0.1h10.9c0.9,0,1.8-0.3,2.7-0.4c0.4,0,0.9,0,1.4,0.1c0.5,0.1,1,0.1,1.5,0.1  c3.6-0.2,7.2-0.1,10.9,0.1c1.9,0.2,3.7,0.1,5.6-0.1c1.8-0.2,3.6-0.3,5.4-0.1c1.4,0,2.9,0.1,4.3,0.2c0.6,0,1.2-0.1,1.8-0.2h5.4  c0.9,0,1.8,0.1,2.7,0.1h15.9c2.7,0,5.3,0.1,8,0.2c1.8,0,3.7,0,5.6,0c1,0,1.9,0,2.8,0c2.1,0,4.2-0.2,6.3-0.2c1,0,2,0.2,3,0.2h9.2  c0.7-0.1,1.4,0.4,1.5,1.1c0,0.1,0.1,0.2,0.1,0.2c0,0.9-0.7,1.2-1.5,1.2h-3.9L176.6,7.6L176.6,7.6z M31.1,9.3  c-3.4,0-6.9-0.2-10.3-0.2c0,0,0-0.1,0-0.1h-1.7c-0.3,0-0.6,0.2-0.8,0.5c-0.2,0.3-0.3,0.6-0.2,1v0.1c0,0.3,0.2,0.6,0.4,0.8  c0.2,0.2,0.6,0.3,0.9,0.3H30l11.5-0.1h7.2c0.6,0.1,1.2,0.2,1.8,0.2c2.1-0.5,4.3-0.5,6.3,0c0.3,0.1,0.7,0.1,1,0  c0.6-0.6,1.3-0.5,1.9-0.4c0.2,0,0.5,0.1,0.7,0.1c0.3,0,0.6,0.1,1,0.2c0.3,0.1,0.6,0.2,0.9,0.2c2-0.1,4-0.3,6-0.3  c0.4,0,0.8,0,1.2,0.1c0.4,0.1,0.8,0.1,1.3,0.1c1,0,1.9-0.2,2.9-0.2c0.7,0,1.4,0,2.2,0c1.5,0,2.9,0,4.2,0c1.9,0,3.9,0.1,5.7,0.2  c1.4,0.2,2.9,0.3,4.3,0.3c2-0.4,4-0.4,6,0c0.4,0.1,0.9,0.1,1.3,0l5.1-0.3c0.4,0,0.7,0.1,1.1,0.1h3c3.1,0.1,6.3,0.2,9.4,0.2  c1.9,0,3.8-0.3,5.7-0.3c0.4,0,0.9,0,1.3,0.1c0.4,0.1,0.8,0.1,1.1,0.1h11.4c1.3,0,2.5,0.2,3.7,0.2c1.8,0,3.7-0.1,5.5-0.1  c0.4,0,1,0,1.4,0c0.4,0,0.8,0,1.1,0c0.6,0,1.2-0.3,1.8-0.3h9.4l5.1-0.2c0.6,0.2,1.2,0.3,1.8,0.3c1.4-0.1,2.8-0.3,4.1-0.4  c0.4,0,0.9,0.1,1.3,0.2c0.5,0.2,1,0.2,1.5,0.2c1.5-0.5,3.1-0.5,4.6,0c0.3,0,0.7,0,1-0.2c0.3-0.1,0.6-0.1,0.8-0.1  c0.5,0.1,1.2,0.2,1.8,0.3c0.1,0,0.3,0,0.4,0c0.3,0,0.6-0.2,0.8-0.4c0.2-0.3,0.3-0.6,0.2-0.9c0.1-1.1-0.6-1.1-1.3-1.1h-10.7  c-0.4,0-0.7-0.1-1.1-0.2c-0.4-0.1-0.8-0.1-1.2-0.2c-1.7,0.1-3.3,0.4-5,0.4c-0.5,0-1.1-0.1-1.6-0.2c-0.5-0.1-1-0.2-1.5-0.2  c-3.4,0.1-6.8,0.3-10.3,0.4c-0.5,0-1-0.1-1.5-0.2C147.5,9.1,147,9,146.6,9c-7.1,0-14.3,0.2-21.4,0.2c-1.2,0.1-2.3,0-3.5,0  c-0.6,0-1.2,0-1.7,0c-0.4-0.1-0.9-0.2-1.3-0.2c-0.6,0-1.1,0.3-1.6,0.3h-8.1L93.4,9.5h-5.8c-1.3,0-2.7-0.2-4-0.2  C79.9,9.1,76.3,9,72.6,9c-1.9,0-3.9,0.3-5.9,0.3c-0.7,0-1.4,0-2.1-0.1c-0.6-0.1-1.2-0.1-1.8-0.1c-0.3,0-0.6,0-0.9,0.1  c-0.3,0-0.6,0.1-0.8,0.1c-1.4-0.1-2.8-0.2-4.1-0.3h-0.5C54,9.1,51.5,9,49.1,9.1c-1.6,0.1-3.2,0-4.8,0c-0.8,0-1.6,0-2.4,0  C38.3,9.1,34.5,9.3,31.1,9.3 M37.5,60.6c2.6-2.7,4-6.4,3.8-10.3l-0.1-2c0-1.5,0-1.7-1.6-2c-1.6-0.1-3.3-0.1-4.9,0.2  c-0.1,0-0.2,0-0.2,0c-0.3,0-0.5,0.2-0.7,0.4c-0.2,0.2-0.2,0.5-0.2,0.8v4.4c0.1,1.3-0.5,2.5-1.6,3c-1.5,0.7-3.3,0.1-4.2-1.3  c-0.7-0.7-1-1.7-0.9-2.7c0.1-0.6,0-1.1-0.2-1.7c-0.2-0.6-0.3-1.2-0.1-1.8c0.3-1.8,0.4-3.7,0.1-5.6c0-0.7,0-1.4,0-2.1v0  c0-1.4,0-2.7,0-4c0.2-1.6,0.2-3.2,0-4.8c-0.3-1.3,0.3-2.6,1.5-3.1c0.1-0.1,0.2-0.1,0.3-0.2c0.9-0.5,1.7-0.9,2.6,0  c0.3,0.1,0.5,0.1,0.8,0.2c1,0.3,1.7,1.2,1.7,2.3c0.1,0.9,0,1.8-0.1,2.7c-0.1,0.5-0.1,1.1-0.1,1.6c0,0.2,0,0.3,0,0.5  c0.2,0.8,1,1.4,1.8,1.2c1.1,0,2.2,0.2,3.3,0.4c2.3,0.5,3.2-0.4,2.7-2.7c-0.3-1.4-0.4-2.9-0.2-4.4c0.4-2.5-0.7-5-2.9-6.3  c-0.5-0.3-0.9-0.8-1.3-1.1c-2.6-2.1-6.1-2.9-9.4-2c-1.4,0.5-2.7,1.1-3.9,1.9c-1.1,0.4-2,1-2.8,1.9c-1.8,2.2-2.8,5.1-2.7,8  c0.2,2.1,0.1,4.3,0,6.4c-0.1,1.7-0.1,3.5,0,5.2c0.1,1.5,0.1,3.1,0.1,4.6v0c0,2.3,0,4.5,0.2,6.8c0.1,1.2,0.6,2.3,1.4,3.2  c0.3,0.3,0.6,0.6,0.9,0.9c1.7,3.3,5.3,2.9,8,4.1c2.6-0.1,5.2-0.7,7.7-1.7C36.9,61.1,37.2,60.9,37.5,60.6 M107.4,49.4  c1-0.7,2.1-0.5,3.2-0.4c0.3,0,0.7,0.1,1,0.1c0.7,0,0.7,0.6,0.6,1.3c-0.2,1.5,0.1,2.9,1,4.1c1,1.4,2.8,2,4.5,1.3  c2.4-0.5,2.7-3.6,1.9-5.5c-0.9-2.1-2.5-3.8-4.4-4.8c-2.2-1.3-4.2-2.9-6.1-4.6c-1.9-1.9-3.2-4.3-3.7-6.9c-0.7-3-0.1-6.3,1.6-8.9  c1.7-2.6,4.5-4.3,7.6-4.6c1.7-0.2,3.4,0,5,0.3c4.1,0.9,6.2,3.7,7.2,7.6c0.5,1.3,0.7,2.7,0.5,4.1c0,1-0.8,1.9-1.8,1.9h-0.2  c-1.5-0.6-3-0.2-4.5-0.7c-0.1,0-0.1,0-0.2-0.1c-0.4-0.1-0.8-0.2-0.7-0.8c0.2-3.3-0.6-6.2-4.5-5.4c-1.8,0.4-2.9,2.2-2.6,4  c0.1,0.6,0.4,1.1,0.7,1.5c1.2,1.5,2.7,2.9,4.3,4c1.5,1.3,3.1,2.3,4.6,3.5c2,1.7,3.6,3.9,4.6,6.4c0.8,1.8,1,3.9,0.4,5.8  c-0.2,0.5-0.3,1-0.3,1.5c-0.1,1.9-1,3.7-2.5,4.9c-0.3,0.2-0.5,0.5-0.8,0.7c-1.6,1.8-3.9,2.8-6.3,2.7c-2.6,0.2-5.3-0.2-7.8-0.9  c-0.3,0-0.5-0.1-0.7-0.3c-0.8-1.3-2.1-2.3-2.8-3.6c-1-1.5-1.5-3.3-1.3-5.1c0.1-0.6,0.1-1.2,0-1.9c0-1.6,0.2-1.9,1.7-1.9  C106.9,49.2,107.2,49.3,107.4,49.4 M71.2,30.9C71.1,29.5,71,28,71,26.6c0-1.4,0.1-2.8,0.1-4.3c-0.1-1.1-0.3-1.2-1.3-1.1  c-1.8,0.2-3.5,0.2-5.3,0c-1.7-0.1-2.1,0.2-2.2,1.9c-0.2,1.6,0,3.2,0.1,4.9c0.2,2.2,0.3,4.5-0.2,6.7c0,0.4,0.1,0.8,0.3,1.2  c0.2,0.5,0.3,0.9,0.5,1.4c0,0.1,0,0.2,0,0.3c0,0.2-0.1,0.3-0.2,0.4c-0.1,0.1-0.3,0.2-0.4,0.2c-1.8-0.3-3.7-0.3-5.5,0.1  c-0.8,0.2-1.6-0.3-1.8-1.1c0-1.5-0.1-2.9-0.3-4.4c0.2-1.8,0.4-3.6,0.4-5.4c-0.1-1,0-2,0-3c0-0.7,0.1-1.3,0.1-2v-0.1  c0.1-0.5-0.3-1.1-0.8-1.2c-0.8-0.2-1.6-0.1-2.5-0.1c-1,0.1-2,0.2-3.1-0.3c-0.5,0-1,0.1-1.5,0.3H47c-0.1,0-0.2,0-0.3,0  c-0.2,0.1-0.4,0.3-0.5,0.5c-0.1,0.2-0.1,0.5,0,0.7c0.1,1.4,0.1,2.8,0,4.2C46,27,46,27.5,46,28c0.3,0.6,0.2,1.3,0.2,1.9  c0,0.6,0,1.2,0.2,1.6c0.4,0.8,0.2,1.4-0.1,2c-0.1,0.4-0.3,0.7-0.3,1.1v1.3c-0.1,1.8-0.1,3.5,0,5.3v0c0,2,0,4-0.1,6c0,1,0.1,2,0.2,3  c0.1,1.3,0.2,2.5,0.1,3.8c-0.1,2.1-0.1,4.2,0,6.3c0,1.6,1.8,1.8,1.8,1.8H53c0.8,0,1.4-0.6,1.5-1.4c0.3-3,0.3-6,0-9  c-0.3-1.2-0.2-2.4,0.2-3.5c0.3-0.5,0.3-1.1,0-1.6c-0.4-0.7,0-1,0.7-1c2.2,0.2,4.3,0.1,6.5-0.2c0.3-0.1,0.6,0,0.8,0.2  c0.2,0.2,0.2,0.5,0.1,0.8c-0.2,1-0.3,2.1-0.3,3.1c0.2,1.1,0.3,2.2,0.3,3.2c-0.3,1.5-0.2,2.9-0.2,4.4c0,1.1,0,2.2-0.1,3.2  c-0.1,1.6,0.3,2,1.7,2c1.8,0,3.7,0,5.5-0.1c1.2-0.1,1.7-1.1,1.2-2.5c-0.1-0.3-0.1-0.7-0.1-1c0.1-4,0.1-8.1,0.1-12.1  c0.3-1.1,0.5-2.3,0.6-3.5c-0.3-2.4-0.4-4.7-0.2-7.1C71.4,34.3,71.3,32.6,71.2,30.9 M148.3,37.5h-3.7c-0.5,0-1.6,0-2.7,0  c-0.7,0-1-0.2-0.9-1c0.4-2.5,0.3-5.1-0.3-7.6c0-0.1,0-0.2,0-0.4c0-0.2,0.1-0.3,0.2-0.4c0.1-0.1,0.3-0.1,0.4-0.1  c0.4,0,0.8,0.1,1.2,0.2c1.3,0.4,2.8,0.5,4.1,0.1c0.8-0.1,1.5-0.1,2.3,0c0.8,0,1.9,0.1,2.7,0.2c0.8,0,1.3-0.4,1.1-1.1  c-0.2-1.5-0.2-2.9,0-4.4c0-1.7,0-1.7-1.8-1.7c-1.3-0.1-2.7,0-4,0.1c-1.9,0.1-3.7,0.2-5.6-0.1c-1.1-0.2-2.3-0.1-3.4-0.1  c-1,0.1-2.1,0.1-3,0c-2-0.3-2.6,0.6-2.3,2.7c0.3,1.5,0.3,3,0.3,4.6c-0.1,1.5-0.1,2.9,0,4.4c0.2,2.8,0.2,5.7,0.2,8.6  c0,0.7,0,1.4,0,2.2c0,1.1-0.1,2.2-0.1,3.3c-0.1,1-0.1,2.1-0.1,3.1c0,1.7,0.2,3.1,0.2,5c0.1,1.9,0.1,3.8,0,5.7  c-0.1,0.7,0,1.3,0.9,1.3c1.7,0.1,3.4,0,5-0.1c2-0.3,4-0.3,6-0.1c0.7,0,1.3,0,2,0c1.4,0,2.8,0,4.3,0.2c1.4,0.2,1.8-0.5,1.8-2.1  c-0.3-1.3-0.4-2.7-0.3-4c0.1-1-0.3-1.2-1.2-1.2c-1,0-1.9,0-2.9,0c-1.9,0-3.8-0.1-5.7,0c-1.8,0.1-2,0-1.8-1.9c0-0.3,0.1-0.6,0.1-0.8  c0.4-1.4,0.4-2.8,0-4.2c-0.1-0.5-0.1-1-0.1-1.4c0-0.5,0.1-1-0.1-1.5c0-0.1,0-0.1,0-0.2c0-0.2,0.1-0.3,0.3-0.5  c0.1-0.1,0.3-0.2,0.5-0.1c0.9,0.1,1.8,0.1,2.7,0c1.3,0.1,2.6,0.1,3.9-0.1h0.1c0.2,0,0.3-0.1,0.4-0.2c0.1-0.1,0.2-0.3,0.2-0.5  c-0.1-0.7,0.1-1.4,0.2-2.1c0.2-0.8,0.3-1.6,0.2-2.5c0-0.1,0-0.1,0-0.2c0-0.3-0.1-0.6-0.3-0.7C148.8,37.6,148.5,37.5,148.3,37.5   M172.4,21.6h-6.1c-2.2-0.1-4.5-0.1-6.8-0.2c-0.8,0-1.3,0.3-1.1,1.1c0.2,1.5,0.2,2.9,0,4.4c0,5.1,0,10.2-0.1,15.2  c0.2,2.5,0.1,5-0.1,7.4c0,1.2,0.1,2.4,0.4,3.5c0.1,1.1,0,2.3,0,3.4c-0.1,1.3-0.2,2.7,0,4.1c0.2,1.2,0.2,1.3,1.5,1.3  c1.8-0.2,3.6-0.3,5.4-0.3c0.8,0.1,1-0.5,1.1-1.2c0.1-1.8,0-3.6-0.2-5.4v-8.1c-0.1-0.5-0.1-1,0-1.5c0.5-0.8,3.3-0.4,4-0.2h0.2  c0.8,0.1,1.4,0.5,1.9,1.1c0.5,0.6,0.7,1.4,0.6,2.1c0.1,1.5,0,3-0.1,4.4c-0.3,2.3-0.1,4.6,0.6,6.8c0.2,1,0.9,1.8,1.9,2.1  c1.3,0.3,2.7,0.4,4.1,0.5c3,0.3,2.9-0.7,2.2-2.8c-0.1-0.4-0.3-0.8-0.5-1.2c-0.3-0.6-0.5-1.2-0.5-1.9c-0.2-2.5-0.3-5.1-0.2-7.6  c0.6-2.6-0.7-5.4-3.2-6.5c-0.6-0.3-0.7-0.6,0-1c2-1,3.2-3.1,2.8-5.4c-0.1-0.7-0.1-1.4,0.1-2.1c0.5-1.6,0.2-3.1,0-4.6  c-0.1-0.6-0.2-1.3-0.3-1.9c-0.1-0.8-0.3-1.5-0.7-2.2C177.8,22.9,175.2,21.5,172.4,21.6 M89.1,54c-1,0.1-2,0.2-3,0.2  c-0.7-0.1-1.3,0.4-1.4,1.1c0,0,0,0.1,0,0.1c-0.3,1.5-0.4,2.9-0.5,4.4c0,2-0.2,2.2-2.2,2.1c-1.7,0.2-3.3,0.2-5,0  c-0.5-0.1-0.8-0.5-0.7-1c0-0.9,0.1-1.8,0.3-2.7c0.7-1.9,1.1-4,1.1-6c0-0.5,0.1-1,0.3-1.4c0.7-1.7,1.2-3.5,1.3-5.4  c0-1.6,0.3-3.2,1.1-4.6c0.3-0.7,0.4-1.5,0.4-2.3c0.8-4.2,1.7-8.3,2.6-12.5c0.5-1.2,0.7-2.6,0.6-3.9c-0.3-0.7,0.5-0.7,1-0.7h4.3  c0.8,0.1,1.5,0.1,2.3,0c1.7-0.3,2.1,0,2.3,1.7c0.5,1.9,0.8,3.8,0.8,5.8c0.1,0.8,0.3,1.6,0.7,2.4c0.6,1.9,0.4,4,0.9,5.9  c0.6,1.9,1.1,3.9,1.4,6c0.2,2,0.6,4,1.3,6c0.1,0.4,0.1,0.9,0,1.3c0,1,0.2,2,0.6,2.8c0.5,1,0.8,2.1,0.7,3.2c-0.2,1.3,0,2.7,0.7,3.8  c0.6,1.1,0.3,1.3-0.9,1.6c-1.4,0.2-2.9,0.1-4.3-0.2c-0.3-0.1-0.7,0-1.1,0c-0.6,0.1-1.1,0.2-1.6-0.2c-0.3-0.8-0.5-1.6-0.4-2.4  c-0.5-1.5-0.7-3-0.6-4.5c0-0.5-0.2-0.6-0.6-0.6L89.1,54L89.1,54z M172.9,36c0-0.8,0-1.6-0.1-2.4c-0.1-0.9-0.1-1.8-0.1-2.6  c0.2-0.9-0.1-1.8-0.8-2.4c-0.7-0.6-1.6-0.8-2.4-0.5c-0.5,0.1-0.9,0.2-1.4,0.2c-1.3,0.1-1.6,0.4-1.5,1.6c-0.1,1.7,0,3.3,0.2,5  c0.2,0.7-0.1,1.4-0.3,2c-0.3,0.9-0.6,1.7,0.1,2.3c1.1,0.4,2.3,0.4,3.5,0C171.7,39.1,173,37.7,172.9,36 M87.6,47.2  c-1.3-0.1-1.4-0.3-1.3-1.7h0c0-0.3,0-0.7,0.1-1c0.8-2.4,1.3-4.9,1.3-7.4v-0.8c0-0.2,0.2-0.4,0.4-0.4c0.3,0,0.6,0.1,0.6,0.4  c0.1,0.2,0.1,0.4,0.1,0.6c-0.4,1.2-0.1,2.3,0.2,3.4c0.1,0.5,0.3,1,0.4,1.5c0.3,1.7,0.7,3.4,1.1,5.1c0.1,0.6,0.1,0.8-0.6,0.6  C89.2,47.3,88.4,47.2,87.6,47.2 M107.6,49.6c-0.1,0.1-0.1,0.1-0.1-0.1L107.6,49.6z M176.1,74.5c0.8,0.2,1.6,0.3,2.4,0.1l-0.1-0.1  h1.3c1.5,0,2.2-0.4,2.2-1.3c0-0.9-0.6-1.3-2.1-1.5c-1-0.1-2,0-3.1,0.1c-1,0.1-2.1,0.2-3.1,0.1c-2-0.2-4-0.2-6,0  c-1.4,0.1-2.8,0-4.1,0c-1.5,0-3-0.1-4.6,0c-1.6,0.1-3.3,0.1-4.9,0c-0.8,0-1.6,0-2.4,0c-1,0-1.9,0-2.8,0c-1.9,0-3.7,0.1-5.5,0  c-2.4-0.2-4.8-0.2-7.1,0c-1.4,0.2-2.8,0.2-4.1,0c-1.6-0.2-3.2-0.2-4.8,0c-1.3,0.2-2.6,0.2-3.9,0.1c-2.8-0.1-5.7-0.1-8.5-0.1  c-3.2,0.3-6.4,0.3-9.6,0c-1.6-0.4-3.3-0.3-4.9,0.3c-0.3,0.1-0.7,0.1-1,0c-2.2-0.4-4.4-0.5-6.6-0.3c-0.5,0-1.1,0.1-1.6,0.1  c-0.6,0.1-1.2,0.2-1.9,0.1c-1.8-0.3-3.7-0.4-5.5-0.3c-3.9,0.4-7.9,0.5-11.8,0.3L51.5,72c-3.6,0-7.2-0.2-10.9-0.2  c-2.2-0.1-4.5-0.1-6.7,0c-1.8,0.2-3.7,0.2-5.5,0c-1.2-0.2-2.5-0.2-3.7-0.1c-0.4,0.1-0.8,0.1-1.2,0c-1.3-0.4-2.6-0.5-3.9-0.1  c-0.2,0-0.3,0-0.5,0c-0.9,0.2-1.5,1-1.3,1.9c0.2,1.1,1,1,1.7,1c0.1,0,0.1,0,0.2,0c1.9,0.1,3.8,0.1,5.6,0c4.1,0.1,8.4,0.1,12.4,0.1  c1.6,0,3.2-0.1,4.7-0.1c2.4-0.1,4.8-0.2,7.2-0.1c4.7,0.1,9.3,0.1,14,0.1c1.5,0.1,3.1,0.1,4.6,0c1.6-0.3,3.3-0.2,4.9,0.4  c0.5,0.2,1,0.2,1.4,0c2.2-0.6,4.5-0.7,6.8-0.2c1.4,0.1,2.8,0.1,4.1,0.1c0.8,0,1.6-0.1,2.4-0.1c1-0.1,2.1-0.2,3.1-0.1  c2.8,0.3,5.7,0.3,8.5,0c0.6-0.1,1.2-0.1,1.8,0c1.2,0.4,2.4,0.5,3.7,0.3c3.3-0.6,6.6-0.7,9.9-0.4c2.9,0.3,5.8,0.3,8.7-0.1  c1.4-0.3,2.9-0.3,4.4,0c1,0.2,1.9,0.2,2.9,0c2-0.2,4-0.3,6.1-0.2c5.6,0.1,11.3,0.1,16.9,0.2c2.8-0.2,5.7-0.2,8.5,0  c0.8-0.1,1.7-0.1,2.5-0.1c1.2,0.3,2.3,0.2,3.5,0.1c1-0.1,1.9-0.2,2.9-0.1c0.9,0.1,1.9,0.1,2.9,0C174.7,74.2,175.4,74.3,176.1,74.5   M21,75.7c0,0,0.1,0,0.1,0c2.5,0.4,5,0.4,7.4-0.1c0.9-0.2,1.8-0.1,2.7,0.2c0.9,0.2,1.8,0.2,2.7-0.1c2.1-0.2,4.3-0.2,6.5,0.2  c1,0.2,1.9,0.2,2.9,0c2-0.3,4-0.4,6.1-0.2c0.7,0,1.5,0,2.2,0c2,0,4.1,0,6.2,0.1c1.4,0.1,2.9,0.1,4.3,0c2.1-0.1,4.1-0.2,6.2,0.3  c3.3-0.3,6.7-0.2,10-0.1c1.7,0.1,3.3,0.1,5,0.1c1.6,0.1,3.2,0.1,4.7-0.3c0.3-0.1,0.7-0.1,1,0C91,76,93.2,76,95.5,76  c1.2,0,2.4,0,3.7,0c2.7,0,5.2,0,7.8-0.1c0.7,0,1.4,0,2,0c1.4,0,2.7-0.1,4.1,0c1.6,0.1,3.2,0.1,4.8,0c1.3,0,2.5-0.1,3.8,0  c1.5,0.1,3.1,0.1,4.6,0c1.1-0.3,2.2-0.4,3.3-0.4c1,0.1,1.9,0.2,2.9,0.3c0.6,0.3,1.4,0.3,2.1,0c0.4-0.2,0.9-0.2,1.3-0.2  c1.4,0,2.8,0,4.2,0c3.5,0,7-0.1,10.5,0.1c2.7,0.2,5.5,0.2,8.2,0c2.2-0.2,4.4-0.1,6.6-0.1c1.1,0,2.3,0.1,3.4,0.1c1.3,0,2.5,0,3.8,0.1  c2.5,0.1,5,0.2,7.6-0.1c0.4-0.1,0.8,0,1.1,0.2c0.3,0.2,0.6,0.5,0.7,0.9c0,0.1,0,0.3,0,0.4c-0.1,0.9-0.9,1.5-1.7,1.4  c-2.2-0.5-4.5-0.6-6.8-0.3c-2.2-0.3-4.3-0.2-6.4,0.3c-0.3,0.1-0.7,0.1-1,0c-2.3-0.6-4.7-0.6-7-0.1c-0.6,0-1.1-0.1-1.7-0.2  c-0.5-0.1-1-0.2-1.6-0.2l-5.9,0.2c-3,0.1-5.9,0.1-8.9,0c-1.5,0-3,0-4.5,0c-1.2,0-2.4,0-3.7,0c-2.4,0-4.8-0.1-7.2,0  c-2.6,0.1-5.2,0-7.8,0c-2.6,0-5.2-0.1-7.8,0c-3,0.3-6,0.2-8.9-0.1c-0.1,0-0.3,0-0.4,0c-0.9,0.4-1.9,0.3-2.8,0.3c-0.7,0-1.3-0.1-2,0  c-1.2-0.1-2.4-0.1-3.5,0c-1.6,0.3-3.3,0.3-4.9,0c-1.9-0.2-3.8-0.1-5.7,0.4c-0.3,0.1-0.6,0.1-0.8,0c-2.2-0.4-4.4-0.4-6.5,0  c-1.1,0-2.2-0.1-3.2-0.3c-2,0-4.1,0.1-6.1,0.3c-1.1-0.1-2.2-0.2-3.2-0.5c-0.4-0.1-0.8-0.2-1.2-0.1c-1.9,0.3-3.8,0.2-5.6,0.2  c-1.5-0.1-3-0.1-4.5,0c-2.8,0.2-5.7,0.2-8.5,0.1c-1.4,0-2.9-0.1-4.3-0.1l-16.2-0.1h-2.1c-0.6-0.1-1-0.6-0.9-1.2  c-0.1-0.3,0-0.5,0.1-0.7c0.1-0.2,0.4-0.4,0.6-0.4h0.2L21,75.7z"></path>
</svg>
