<?xml version="1.0" encoding="UTF-8"?>
<!-- Generator: Adobe Illustrator 24.1.0, SVG Export Plug-In . SVG Version: 6.00 Build 0)  -->
<svg xmlns="http://www.w3.org/2000/svg" xmlns:xlink="http://www.w3.org/1999/xlink" version="1.1" id="Layer_3" x="0px" y="0px" width="200px" height="84px" viewBox="0 0 200 84" style="enable-background:new 0 0 200 84;" xml:space="preserve">
<style type="text/css">
	.st0{fill:#302F3F;}
	.st1{fill-rule:evenodd;clip-rule:evenodd;fill:#302F3F;}
</style>
<g>
	<path class="st0" d="M68.3,58.3V25.4h20.3V31H74.1v8.1h7.4v5.6h-7.4v13.5H68.3z"></path>
	<path class="st1" d="M80.4,43.1c-0.5,1.4-0.8,2.8-0.8,4.3c0,2,0.5,3.9,1.5,5.6c1,1.7,2.3,3,4,3.9c1.7,1,3.6,1.4,5.7,1.4   c1.8,0,3.5-0.4,5.1-1.2c1.6-0.8,2.8-1.8,3.8-3.2L96,51c-0.6,0.8-1.3,1.4-2.3,1.8c-0.9,0.4-1.9,0.6-2.9,0.6c-1.5,0-2.8-0.4-3.8-1.2   s-1.7-1.9-2-3.2h16c0.1-0.5,0.1-1.1,0.1-1.7c0-2-0.4-3.8-1.3-5.5c-0.9-1.7-2.2-3-3.8-4c-1.6-1-3.5-1.5-5.5-1.5   c-1.6,0-3.1,0.3-4.5,0.9c-1.4,0.6-2.5,1.4-3.4,2.4C81.6,40.5,80.9,41.7,80.4,43.1z M95.6,44.9H85.1c0.4-1.1,1.1-2.1,2-2.7   c1-0.7,2.1-1,3.3-1c1.3,0,2.5,0.4,3.4,1.1C94.9,43,95.4,43.9,95.6,44.9z"></path>
	<path class="st1" d="M98.3,43.1c-0.5,1.4-0.8,2.8-0.8,4.3c0,2,0.5,3.9,1.5,5.6c1,1.7,2.3,3,4,3.9c1.7,1,3.6,1.4,5.7,1.4   c1.8,0,3.5-0.4,5.1-1.2c1.6-0.8,2.8-1.8,3.8-3.2l-3.7-3c-0.6,0.8-1.3,1.4-2.3,1.8c-0.9,0.4-1.9,0.6-2.9,0.6c-1.5,0-2.8-0.4-3.8-1.2   c-1-0.8-1.7-1.9-2-3.2h16c0.1-0.5,0.1-1.1,0.1-1.7c0-2-0.4-3.8-1.3-5.5c-0.9-1.7-2.2-3-3.8-4c-1.6-1-3.5-1.5-5.5-1.5   c-1.6,0-3.1,0.3-4.5,0.9c-1.4,0.6-2.5,1.4-3.4,2.4C99.5,40.5,98.8,41.7,98.3,43.1z M113.5,44.9H103c0.4-1.1,1.1-2.1,2-2.7   c1-0.7,2.1-1,3.3-1c1.3,0,2.5,0.4,3.4,1.1C112.8,43,113.3,43.9,113.5,44.9z"></path>
	<path class="st0" d="M117.2,50.3c0,2.6,0.6,4.5,2,5.9c1.3,1.4,3.2,2.1,5.6,2.1c0.9,0,1.9-0.1,3.2-0.4v-5c-0.4,0.1-0.9,0.1-1.4,0.1   c-1.4,0-2.3-0.3-2.8-1c-0.5-0.7-0.7-1.8-0.7-3.4v-23h-5.7V50.3z"></path>
</g>
</svg>
