<?xml version="1.0" encoding="UTF-8"?>
<!-- Generator: Adobe Illustrator 24.1.0, SVG Export Plug-In . SVG Version: 6.00 Build 0)  -->
<svg xmlns="http://www.w3.org/2000/svg" xmlns:xlink="http://www.w3.org/1999/xlink" version="1.1" id="Layer_3" x="0px" y="0px" width="200px" height="84px" viewBox="0 0 200 84" style="enable-background:new 0 0 200 84;" xml:space="preserve">
<style type="text/css">
	.st0{fill:#302F40;}
</style>
<path class="st0" d="M179.3,56.5c-0.9,0.7-1.8,1.6-2.8,2c-2.9,1.3-5.8,2.6-8.8,3.6c-3.7,1.3-6.6-0.3-8.8-3.3  c-0.1-0.2-0.3-0.4-0.3-0.3c-3.3,1.2-6.4,2.4-9.5,3.3c-2.9,0.8-5.8,0.5-8.6-0.6c-0.8-0.3-1.8-0.2-2.7-0.2c-0.5,0-3.7,1-9.5-0.3  c-1.9-0.2-3.1-1.9-3.9-3.7c-0.3-0.7-0.6-1.3-1-2.2c-0.9,1.1-1.5,2.1-2.3,2.9c-1,1.1-2.2,2.2-3.4,3c-0.9,0.6-1.9,0.5-2.4-0.6  c-0.4-1-1.1-0.8-1.9-0.5c-2,0.8-3.9,1.7-6,2.3c-2.7,0.9-5.4,0.6-7.8-0.9c-0.8-0.5-1.3-1.2-2-1.7c-1.7,0.6-3.5,1.1-5.2,1.8  c-2.2,0.9-4.5,0.9-6.7,0.2c-2.6-0.8-5.1-0.1-7.6,0c-2.8,0-5.5-0.4-8.3-0.4c-1.2,0-2.5,0.3-3.6,0.9c-2,1-3.8,0.8-5.7-0.1  c-1.9-0.9-3.3-2.4-3.8-4.4c-0.4-1.8-0.4-3.7-0.4-5.5c-0.1-1.3,0.6-2.1,1.9-2.3c0.6-0.1,1.2-0.4,2.1-0.7c-0.1,1-0.1,1.8-0.2,2.6  c-0.5,2.5-0.2,4.9,1.1,7.1c1.3,2.3,4.4,2.9,6.7,1.4c0.7-0.4,1.4-0.8,2.1-1.1c1.5-0.6,3.6-4,3.4-5.6c-0.1-1.4-1.5-2.1-3.4-1.6  c-0.6,0.1-1.2,0.2-2.1,0.4c0.3-0.5,0.3-0.8,0.5-1c1.5-1.4,4.7-1.8,6.5-1c1.4,0.7,1.8,1.8,1.1,3.1c-0.8,1.5-1.7,3-2.7,4.3  c-0.9,1.2-0.5,1.8,0.7,2.1c3.5,0.8,7.1,1.3,10.4-0.8c1.9-1.1,2.7-3,3.1-5c0.2-0.8-0.2-1.8-1.5-1.8c-1.2,0-2.5,0-3.8,0  c0.8-1.7,3.5-2.6,5.6-2.2c2.7,0.6,3.2,1.7,1.9,4.1c-0.7,1.4-1.6,2.7-2.5,3.9c-0.6,0.9-0.6,1.5,0.4,1.8c0.9,0.3,2,0.6,2.9,0.4  c2.1-0.4,4.1-1.1,6.1-1.7c0.4-0.1,0.8-0.5,1-0.9c0.4-0.9,0.8-1.8,1.1-2.8c0.7-2.7,2.6-4.1,5.1-4.7c0.9-0.2,2.2-0.1,2.7,0.4  c0.8,0.8,0.6,2.2-0.4,3c-1.1,1-2.3,1.9-3.6,2.6c-1.8,1-1.9,1.7-0.4,3.1c2,1.9,5.7,2.3,8.6,0.8c0.3-0.1,0.5-0.3,0.8-0.5  c2.5-1.1,2.5-1.1,2-3.8c-0.2-1.1-0.3-2.2-0.5-3.3c-0.2-1.4,1.6-3.2,2.9-2.7c0.3,0.1,0.6,0.8,0.6,1.2c0.2,1.6,0.2,3.2,0.4,4.7  c0.1,0.6,0.6,1.2,0.9,1.7c0.4-0.3,1-0.6,1.3-1.1c0.9-1.3,1.7-2.7,2.5-4.1c0.8-1.3,2.2-1.8,3.8-2.3c0.1,3.3,0.6,6.3,3.2,7.9  c2.6,1.7,5.6,2.8,8.7,2.5c-0.6-2.9-1.2-5.6-1.8-8.4c0-0.1-0.2-0.4-0.1-0.4c1.6-1.4,0.9-3.4,1.5-5.1c0.1-0.2,0.2-0.6,0.4-0.7  c0.6-0.4,1.3-1.1,1.7-1c0.9,0.2,0.9,1.1,0.6,2c-0.1,0.2-0.1,0.5-0.1,0.8c-0.1,2.2,0.1,2.4,2.3,2.1c4.4-0.6,8.7-1.7,12.8-3.3  c0.6-0.2,1.2-0.3,1.8-0.5c0.1,0.2,0.1,0.3,0.2,0.5c-1.8,0.7-3.6,1.5-5.4,2.1c-3.6,1.1-7.2,2-10.8,2.9c-1,0.2-1.5,0.6-1.3,1.6  c0.3,1.6,0.3,3.3,1,4.8c0.5,1,1.6,2.1,2.7,2.5c3.5,1.3,7.1,1.4,10.7-0.3c2.8-1.3,5.3-2.5,4.2-6.4c-0.8-3,1.3-3.9,4-4.5  c-0.1,0.9-0.1,1.7-0.3,2.5c-0.9,4,0.4,7.5,3.8,8.6c1.9,0.6,4.2,0.3,6.2-0.2c1.8-0.4,3.4-1.7,5.1-2.6c0.7-0.4,1.5-0.8,2.2-1.2  C179.2,56.2,179.2,56.3,179.3,56.5z M101.6,54.4c0.2,0.1,0.4,0.2,0.5,0.3c0.7-0.6,1.4-1.1,2-1.8c0.2-0.2-0.1-0.8-0.1-1.3  c-0.4,0.1-1,0-1.1,0.3C102.3,52.8,102,53.6,101.6,54.4z"></path>
<path class="st0" d="M46.9,30c0.1-0.5,0-1,0.2-1.4c2.7-4.9,3.1-10.2,2.6-15.5c-0.2-1.8-1.2-3.6-2.1-5.2c-0.6-1.2-2-1.4-3.1-0.7  c-1.4,0.9-2.8,2-3.7,3.3c-3.7,5.2-6.2,10.9-8,17c-1.2,4.2-2.4,8.4-3.6,12.6c-0.3,1.2-0.4,2.5-0.6,3.8c-0.1,1,0.3,1.4,1.3,1.3  c2.1-0.2,4.3-0.3,6.4-0.4c3.9-0.3,7.9-0.5,11.8-0.8c0.7,0,1.4-0.3,2.1-0.3c0.7,0,1.5,0.1,2.2,0.1c0,0.2,0,0.5,0.1,0.7  c-0.6,0.1-1.3,0.4-1.9,0.4c-6.9,0.7-13.8,1.3-20.7,2c-1.2,0.1-1.8,0.7-1.6,2c0.9,7.3,0.8,14.7,0.5,22c0,1-0.1,2.4-1.3,2.3  c-0.7,0-1.9-1.2-2-1.9c-0.4-3-0.8-6.1-0.6-9.2c0.2-4.2,0.9-8.5,1.3-12.7c0.1-1.2-0.2-1.9-1.5-1.7c-0.4,0.1-0.8,0.1-1.1-0.1  c-0.4-0.2-0.7-0.7-1.1-1c0.4-0.3,0.7-0.9,1.1-1c2.6-0.9,2.7-0.8,2.1-3.6c-0.4-2.1-1-4.1-1.6-6.5c-0.5,1.3-0.8,2.1-1.2,3  c-1.5-1.5-2-5.7-1-7.1c1-1.4,2.4-1.5,3.1,0.2c0.9,2,1.5,4.2,2.1,6.3c0.2,0.6,0.3,1.2,0.7,1.8c0.4-1.7,0.8-3.4,1.3-5  c1.7-5.2,3.3-10.5,5.2-15.6c1.6-4.2,3.6-8.3,6.8-11.6c1-1,2.2-1.9,3.6-2.3c1.8-0.6,3.5,0.2,4.7,1.6c2.2,2.6,2.7,5.6,2.6,8.9  c-0.1,4.5-0.9,8.8-2.8,12.9c-0.3,0.7-1,1.2-1.6,1.9C47.3,30.3,47.1,30.1,46.9,30z"></path>
<path class="st0" d="M54.8,51.2c-4,1.4-7.8,2.5-11.8,2.7c-2.3,0.1-2.4,0.3-2.4,2.5c0,1.7,0.1,3.5-1.3,4.8c-0.6,0.5-1.4,0.8-2.2,1.1  c-0.3-0.6-0.6-1.3-0.7-1.9c-0.4-2.6-0.8-5.2-1.1-7.9c0-0.4,0.1-1,0.3-1.2c0.5-0.3,1.4-0.7,1.7-0.5c0.8,0.6,1.7,0.4,2.5,0.7  c4.7,1.5,9.3,0.3,13.9-0.5c0.2,0,0.3,0,0.5,0C54.3,51,54.4,51,54.8,51.2z"></path>
<path class="st0" d="M162.5,41.8c0.1,1.5-0.6,2.1-1.9,2.1c-1.2,0-2.1-0.6-2.2-1.8c-0.2-1,1.1-1.9,2.6-1.9  C162.1,40.2,162.5,40.6,162.5,41.8z"></path>
<path class="st0" d="M59.5,40.1c1.4-0.2,1.7,0.6,1.7,1.6c0.1,1.1-0.8,2.1-1.9,2.1c-1.2-0.1-2.1-0.6-2.3-1.8  C56.9,40.9,58,40.2,59.5,40.1z"></path>
</svg>
