<?xml version="1.0" encoding="UTF-8"?>
<svg width="200px" height="84px" xmlns="http://www.w3.org/2000/svg" id="Layer_1" data-name="Layer 1" viewBox="0 0 206 87">
  <defs>
    <style>.cls-1{fill:#302e3f;}</style>
  </defs>
  <g id="Layer_2" data-name="Layer 2">
    <g id="Layer_1-2" data-name="Layer 1-2">
      <path class="cls-1" d="M48.43,60.56h0a5.39,5.39,0,0,0-.67,10.56c.33.08.67.12,1,.21h.67a2.5,2.5,0,0,1,.25-.09,5.38,5.38,0,0,0-1.25-10.68Z"></path>
      <path class="cls-1" d="M53.69,25.14l.37-.37a5.22,5.22,0,0,0,1.42-4.42,5.34,5.34,0,0,0-5.38-4.68,5.58,5.58,0,0,0-3.92,1.72L23.52,40l-.29.29a5.32,5.32,0,0,0-1.42,4.25,5.38,5.38,0,0,0,5.34,4.8h.59a6,6,0,0,0,3.54-1.79C38.71,40.08,46.18,32.57,53.69,25.14Z"></path>
      <path class="cls-1" d="M53.69,34.24A5.64,5.64,0,0,0,49.51,36c-4,4-7.88,7.93-11.84,11.85-1.13,1.17-2.34,2.29-3.43,3.46a5.19,5.19,0,0,0-1.41,4.59,5.37,5.37,0,0,0,9.05,3q7.75-7.64,15.43-15.39a5.18,5.18,0,0,0,1.55-3.8c0-.33,0-.67-.09-1A5.41,5.41,0,0,0,53.69,34.24Z"></path>
      <path class="cls-1" d="M184.13,60a3.28,3.28,0,0,0-1.08-2,9.71,9.71,0,0,0-1.75-1.17c-.84-.42-1.71-.71-2.55-1.13a5.5,5.5,0,0,1-1-.62,1,1,0,0,1-.21-1.38c.09-.08.17-.21.29-.25a2.09,2.09,0,0,1,.71-.33,4,4,0,0,1,2.21.16c.67.25,1.26.59,1.92.88.34-.67.67-1.42,1.09-2.09a.47.47,0,0,0-.17-.71,7.75,7.75,0,0,0-4.75-1.29,6.19,6.19,0,0,0-3.51,1.08,3.72,3.72,0,0,0-.21,5.93,5.53,5.53,0,0,0,1.3.83c.83.42,1.71.75,2.54,1.13a4.59,4.59,0,0,1,1.17.67,1.06,1.06,0,0,1-.25,2,2.63,2.63,0,0,1-.5.16,4.2,4.2,0,0,1-2.3-.25,7.11,7.11,0,0,1-2.17-1.25l-1.58,2.46.12.13a7.93,7.93,0,0,0,8.18,1.42,4,4,0,0,0,2.46-2.59,4.11,4.11,0,0,0,.17-.67v-1C184.13,60.1,184.13,60.06,184.13,60Z"></path>
      <path class="cls-1" d="M83.51,44.79a.43.43,0,0,0-.5.38c-1,2.92-2,5.84-3,8.76a52.18,52.18,0,0,0-1.88,6,2.46,2.46,0,0,1-.16.58.74.74,0,0,1-.17-.33c-.21-.75-.33-1.5-.58-2.26-1.42-4.29-2.88-8.59-4.34-12.84a.35.35,0,0,0-.42-.3H69.29a.58.58,0,0,0-.29.05,1,1,0,0,1,.08.29c2.33,6.38,4.67,12.76,7,19.15a.4.4,0,0,0,.37.29h2.92a.44.44,0,0,0,.5-.34c2.13-5.92,4.3-11.8,6.47-17.73.21-.54.37-1.08.58-1.66C85.77,44.84,84.64,44.84,83.51,44.79Z"></path>
      <path class="cls-1" d="M110.5,41.25a15.13,15.13,0,0,0,1.8-1.09l-1.38-2.54c-.08,0-.08,0-.08,0l-.25.17a6.54,6.54,0,0,1-4.26,1.29,4.09,4.09,0,0,1-3.59-2.63,9.39,9.39,0,0,1-.25-1.12h9.93c0-.8,0-1.55,0-2.3-.25-2.79-2-5.51-5.63-5.76a6.93,6.93,0,0,0-6.63,3.13A7.58,7.58,0,0,0,99,34.57a7.12,7.12,0,0,0,5.17,7.18A8.55,8.55,0,0,0,110.5,41.25Zm-5.38-11.1a5.38,5.38,0,0,1,1.59-.08A2.71,2.71,0,0,1,108.88,33h-6.14A3.15,3.15,0,0,1,105.12,30.15Z"></path>
      <path class="cls-1" d="M94.4,50.05a6.91,6.91,0,0,0-6.13,3.13,7.55,7.55,0,0,0-1.13,5,7,7,0,0,0,3.63,5.72,9,9,0,0,0,9.55-1c.05,0,.05-.08.09-.12-.46-.84-.88-1.63-1.34-2.51l-.29.21a6.79,6.79,0,0,1-3.34,1.29,4.1,4.1,0,0,1-4.58-3l-.13-.75h9.8a9.46,9.46,0,0,0,0-2.71A6,6,0,0,0,94.4,50.05ZM97,55.72H90.86A3.26,3.26,0,0,1,92,53.55,3.22,3.22,0,0,1,95.28,53,2.71,2.71,0,0,1,97,55.72Z"></path>
      <path class="cls-1" d="M165.32,50.05a7,7,0,0,0-5.76,2.59A7.87,7.87,0,0,0,158,57.31a7.19,7.19,0,0,0,4.84,7.13,8.73,8.73,0,0,0,6.34-.29,7.92,7.92,0,0,0,2.13-1.29c-.46-.84-.92-1.67-1.34-2.51a6.68,6.68,0,0,1-3.63,1.51,4.3,4.3,0,0,1-3.71-1.3,3.81,3.81,0,0,1-1-2.46h9.84c0-.79,0-1.54,0-2.29A5.92,5.92,0,0,0,165.32,50.05Zm2.59,5.67h-6.18a3.62,3.62,0,0,1,1.5-2.42,3.31,3.31,0,0,1,2.72-.41A2.67,2.67,0,0,1,167.91,55.72Z"></path>
      <path class="cls-1" d="M85.52,41.75a7,7,0,0,0,1.87.37,5.37,5.37,0,0,0,5.18-2.75,1.79,1.79,0,0,0,.12-.21v2.63H96V27.65H92.52v6.26a5.69,5.69,0,0,1-.71,3,3.58,3.58,0,0,1-3.5,1.92,1.75,1.75,0,0,1-1.79-1.42,6,6,0,0,1-.17-1.54v-8.3h-3.5v9.17A10.54,10.54,0,0,0,83,38.37,3.9,3.9,0,0,0,85.52,41.75Z"></path>
      <path class="cls-1" d="M140.62,50.84v5.88a6.45,6.45,0,0,1-.41,2.34,3.84,3.84,0,0,1-3.47,2.63,1.9,1.9,0,0,1-2.25-1.75,6.62,6.62,0,0,1-.08-1.25V50.43H130.9V59.6a8.86,8.86,0,0,0,.21,1.8,3.94,3.94,0,0,0,2.55,3.13,5.8,5.8,0,0,0,2.37.33,5.35,5.35,0,0,0,4.59-2.71s.09-.13.17-.21v2.54h3.34V50.34h-3.51v.5Z"></path>
      <path class="cls-1" d="M114.22,50.43a6.24,6.24,0,0,0-2.51-.38A5.42,5.42,0,0,0,107,52.76a.63.63,0,0,1-.17.21V50.38h-3.33v14.1H107V58a8,8,0,0,1,.13-1.46,4,4,0,0,1,3.92-3.34A1.93,1.93,0,0,1,113.26,55a8,8,0,0,1,.08,1.38v8.09h3.46v-9a9.5,9.5,0,0,0-.16-1.83A3.69,3.69,0,0,0,114.22,50.43Z"></path>
      <path class="cls-1" d="M72.58,33.82h6c.59,0,.5.09.5-.5V30.73H72.58V25.1h7.76v-3H69V41.75h3.54Z"></path>
      <path class="cls-1" d="M127.15,61.56a2.29,2.29,0,0,1-2.38-2.25c-.08-1.92,0-3.8,0-5.71,0-.21.12-.21.25-.21h3v-2.8h-3.21v-4c-.13,0-.21,0-.29,0h-2.8c-.29,0-.33.09-.33.38v3.34a1.57,1.57,0,0,1,0,.41h-1.88v2.8h1.84v1.83c0,1.67,0,3.38.08,5.05a4.29,4.29,0,0,0,2.92,3.92,6.47,6.47,0,0,0,2.54.5c.46,0,.92,0,1.42,0V61.61C127.82,61.56,127.48,61.61,127.15,61.56Z"></path>
      <path class="cls-1" d="M120.64,38.79H120a1.19,1.19,0,0,1-1.26-1,10.54,10.54,0,0,1-.08-1.12V22.1h-3.5V37.24a10.54,10.54,0,0,0,.12,1.59,3.38,3.38,0,0,0,2,2.75,6.68,6.68,0,0,0,3.38.34Z"></path>
      <path class="cls-1" d="M156.35,50.22a8.51,8.51,0,0,0-1.42.12,4.84,4.84,0,0,0-3.33,3.09l-.17.42V50.43h-3.34v14.1h3.51V59.1a9.16,9.16,0,0,1,.16-1.83,4.05,4.05,0,0,1,3.13-3.51,12.4,12.4,0,0,1,1.71-.12V50.43C156.6,50.34,156.43,50.22,156.35,50.22Z"></path>
    </g>
  </g>
</svg>
