<?xml version="1.0" encoding="UTF-8"?>
<!-- Generator: Adobe Illustrator 24.1.0, SVG Export Plug-In . SVG Version: 6.00 Build 0)  -->
<svg xmlns="http://www.w3.org/2000/svg" xmlns:xlink="http://www.w3.org/1999/xlink" version="1.1" id="Layer_2_1_" x="0px" y="0px" width="200px" height="84px" viewBox="0 0 200 84" style="enable-background:new 0 0 200 84;" xml:space="preserve">
<style type="text/css">
	.st0{fill:#302E3F;}
</style>
<g id="nhAKvt.tif">
	<g>
		<path class="st0" d="M98.6,64.9c-0.3-0.1-0.5-0.3-0.8-0.4c-1.8-0.6-2.7-2.2-2.2-4.2c0.3-1.5,2-2.6,3.7-2.4c0.2,0,0.5,0.3,0.6,0.6    c0.4,0.9,0.8,1.8,1.2,2.7c0.4,0.8,0.9,1,1.5,0.3c0.8-0.9,1.3-2,1.9-3.1c0.5-1,0.9-2.1,1.4-3.1c0.4-0.7,0.2-1.4-0.1-2.1    c-1.6-3.9-3.2-7.9-4.8-11.8c-1.2-2.8-2-5.9-4.1-8.5c3.2,0,6.2,0,9.4,0c-0.6,0.7-1.2,1.3-1.7,2c-0.2,0.3-0.3,0.7-0.2,1    c1.5,3.7,2.9,7.3,4.4,11c0,0.1,0.1,0.1,0.2,0.3c0.7-1.7,1.4-3.3,2-4.9c0.5-1.2,1-2.5,1.5-3.8c0.3-0.8,0.3-1.5-0.2-2.2    c-0.7-1.1-1.3-2.2-2.1-3.4c2.3,0,4.4,0,6.7,0c-0.7,1.1-1.4,2-2,3c-0.8,1.4-1.5,2.7-2.1,4.2c-1.9,4.7-3.8,9.4-5.7,14.1    c-1.1,2.6-2.2,5.1-3.5,7.6c-0.7,1.4-2,2.3-3.5,2.6c-0.3,0.1-0.5,0.3-0.7,0.4C99.1,64.9,98.8,64.9,98.6,64.9z"></path>
		<path class="st0" d="M20.1,26.9c2.5,0,4.9,0,7.2,0c2.5,0.1,2.5,0.1,3.5,2.5c2.1,5,4.3,9.9,6.5,15c0.4-0.8,0.7-1.5,1-2.2    c1.5-3.9,3.1-7.8,4.6-11.7c0.3-0.7,0.6-1.3,0.8-2c0.7-1.8,0.7-1.8,2.6-1.8c2,0,4.1,0,6.4,0c-1.1,0.8-2.1,1.5-2.9,2.2    c-0.3,0.3-0.6,0.8-0.6,1.2c0,6.4,0,12.9,0,19.3c0,0.4,0.3,0.9,0.6,1.1c0.9,0.7,1.9,1.4,3,2.2c-4.3,0-8.4,0-12.7,0    c1.1-0.8,2.1-1.5,3-2.2c0.3-0.2,0.5-0.7,0.5-1c0-5.8,0-11.6,0-17.4c0-0.1,0-0.1-0.2-0.3C40.7,39,38,46,35.1,53.2    c-3.5-7.6-6.4-15.1-9.9-22.4c-0.1,0-0.2,0-0.3,0.1c0,0.3,0,0.6,0,1c0,4.7,0.1,9.4-0.1,14c-0.1,2,0.7,3.3,2.1,4.5    c0.9,0.7,1.6,1.6,2.5,2.6c-3.4,0-6.6,0-10,0c0.9-0.9,1.6-1.6,2.3-2.4c0.6-0.6,1.2-1,1.7-1.6c0.3-0.4,0.5-1,0.5-1.4    c0-5.4,0-10.9,0-16.3c0-0.5-0.3-1.1-0.7-1.4C22.2,28.8,21.2,27.9,20.1,26.9z"></path>
		<path class="st0" d="M149.5,53c-3.6,0-7,0-10.7,0c0.8-0.6,1.5-1,2-1.6c0.3-0.3,0.7-0.8,0.7-1.2c0-4.7,0-9.4,0-14.1    c0-1.2-1.2-1.4-1.7-2.1c-0.3-0.3-0.7-0.5-1.2-1c2.8,0,5.3,0,8,0c0,1.3,0,2.6,0,3.9c0.8-1,1.5-2.2,2.5-3.1c2.1-1.8,6.7-1.9,8.5,1.2    c1.1,1.8,1.3,3.8,1.3,5.8c0,3,0,6-0.1,8.9c0,0.8,0.2,1.4,1,1.9c0.6,0.3,1.1,0.8,1.8,1.3c-3.6,0-7,0-10.6,0    c0.5-0.4,0.8-0.8,1.3-1.1c1-0.6,1.4-1.4,1.4-2.5c0-2.4,0.1-4.8,0.1-7.2c0-1.4-0.2-2.7-0.4-4.1c-0.2-1.2-0.8-2.2-2.1-2.6    c-1.3-0.4-2.5,0.1-3.5,1c-0.8,0.8-1.3,1.6-1.2,2.9c0.1,3.5,0.1,6.9,0,10.4c0,0.8,0.2,1.4,1,1.8C148.2,51.9,148.7,52.4,149.5,53z"></path>
		<path class="st0" d="M97.4,53c-3.6,0-7,0-10.7,0c0.8-0.6,1.5-1.1,2.2-1.7c0.3-0.2,0.6-0.6,0.6-0.9c0-3.8,0-7.6-0.1-11.4    c0-0.8-0.4-1.6-0.8-2.3c-0.6-1.2-2.5-1.7-3.7-1c-1.5,0.8-2.6,1.9-2.5,3.9c0.1,3.4,0.1,6.8,0,10.3c0,0.7,0.2,1.2,0.8,1.6    c0.6,0.4,1.2,0.9,2,1.4c-3.6,0-7,0-10.6,0c0.7-0.5,1.2-1,1.9-1.3c0.6-0.4,0.9-0.8,0.9-1.5c0-4.6,0-9.2,0-13.8c0-0.5-0.3-1-0.6-1.3    c-0.6-0.6-1.4-1.2-2.2-1.9c2.8,0,5.3,0,7.9,0c0,1.4,0,2.7,0,4.3c0.7-1,1.1-2,1.8-2.8c1.7-1.9,3.9-2.2,6.2-1.6    c2.2,0.5,3.3,2.1,3.8,4.1c0.3,1.4,0.4,2.8,0.5,4.2c0,2.9,0,5.8-0.1,8.8c0,0.7,0.2,1.2,0.9,1.6C96.1,51.9,96.6,52.4,97.4,53z"></path>
		<path class="st0" d="M137,42.8c-0.1,2.2-0.3,4.2-1.3,6c-1.2,2.2-3,3.6-5.3,4.1c-3.1,0.7-6.1,0.7-8.9-1.1c-2.2-1.4-3.4-3.4-3.9-5.8    c-0.4-2-0.4-4.1,0-6.1c0.8-4.1,4-6.9,8.2-7.2c1.8-0.1,3.6-0.1,5.4,0.6c3.4,1.2,5.1,3.8,5.7,7.2C136.9,41.3,136.9,42.1,137,42.8z     M131.4,43c-0.1,0-0.2,0-0.3,0c0.1-2.4-0.1-4.8-0.9-7.1c-0.6-1.7-1.7-2.6-3.3-2.6c-1.5,0-2.6,0.9-3.2,2.6c-1,3.3-1.1,6.6-0.8,10    c0.1,1.6,0.5,3.2,1,4.8c0.6,1.9,2.4,2.6,4.2,1.9c1.2-0.5,1.9-1.5,2.1-2.7C130.8,47.5,131.1,45.3,131.4,43z"></path>
		<path class="st0" d="M65.5,42.5c0-1.9,0.1-3.6,0-5.3c-0.2-2.5-1.6-3.9-3.9-3.9c-0.7,0-1,0.2-1.3,0.8c-0.4,0.9-0.8,1.7-1.3,2.6    c-0.4,0.9-0.9,1.7-1.4,2.8c-0.8-1.9-1.5-3.7-2.3-5.7c1.9-0.4,3.6-1,5.4-1.2c2.1-0.2,4.2-0.3,6.2,0.5c2.3,0.9,3.2,2.9,3.4,5    c0.2,3,0,6,0,9c0,0.6,0,1.2,0,1.8c0.1,1.3,0.6,1.7,2,1.6c0.1,0,0.3,0,0.5,0c-0.4,1.6-1.8,2.6-3.6,2.6c-2.1,0-3.2-1-3.8-3.6    c-0.6,0.7-1.2,1.6-1.9,2.3c-1.8,1.6-5.1,1.8-7,0.4c-2-1.5-2.7-4.4-1.8-6.8c1.5-4,6.5-5.1,9.9-3.5C64.8,42.2,65.1,42.3,65.5,42.5z     M65.4,45.9C65.4,45.9,65.4,45.9,65.4,45.9c0.1-0.8,0.1-1.6,0.1-2.4c0-0.2-0.2-0.6-0.4-0.7c-1.6-0.7-3.7-0.2-4.7,1.2    c-0.9,1.3-1.2,2.7-0.9,4.2c0.2,1,0.7,1.9,1.8,2.3c1.9,0.7,4.1-0.8,4.2-2.8C65.4,47.1,65.4,46.5,65.4,45.9z"></path>
		<path class="st0" d="M168.3,42.2c0,3,0.4,5.7,3,7.3c2.9,1.8,5.7,0.8,8.5-1c-0.9,2.2-2.3,3.6-4.3,4.3c-3.3,1-6.4,0.7-9.2-1.5    c-1.5-1.2-2.5-2.8-2.9-4.7c-0.6-3.1-0.7-6.2,0.8-9.1c1.3-2.7,3.5-4.2,6.4-4.7c2.4-0.4,4.7-0.1,6.8,1.2c2.7,1.6,3.6,5.1,3.1,7.8    c0,0.2-0.5,0.4-0.8,0.4c-3.4,0-6.9,0-10.3,0C169.1,42.2,168.8,42.2,168.3,42.2z M168.3,41.2c2.4,0,4.7,0,7,0    c0.2,0,0.4-0.3,0.5-0.4c0.1-1.9,0.1-3.8-0.7-5.6c-0.5-1.1-1.3-1.8-2.5-1.8c-1.2-0.1-2.3,0.4-2.9,1.5    C168.5,36.7,168.3,38.9,168.3,41.2z"></path>
	</g>
</g>
</svg>
