<?xml version="1.0" encoding="UTF-8"?>
<svg width="200px" height="84px" xmlns="http://www.w3.org/2000/svg" id="Layer_1" data-name="Layer 1" viewBox="0 0 206 87">
  <defs>
    <style>.cls-1{fill:#302e3f;}</style>
  </defs>
  <path class="cls-1" d="M26,43.62V43.5A21.92,21.92,0,0,1,48.47,21.37c13.14,0,22.31,10,22.31,22v.12A21.92,21.92,0,0,1,48.35,65.63C35.2,65.63,26,55.66,26,43.62Zm36.86,0V43.5c0-8.31-6.06-15.22-14.55-15.22s-14.43,6.78-14.43,15.1v.12c0,8.31,6,15.16,14.55,15.16S62.9,51.94,62.9,43.62Z"></path>
  <path class="cls-1" d="M79.89,22.11h7.52V58.05h22.5v6.84h-30Z"></path>
  <path class="cls-1" d="M118.16,22.11h7.52V64.89h-7.52Z"></path>
  <path class="cls-1" d="M135.22,43.62V43.5a21.92,21.92,0,0,1,22.43-22.13c13.15,0,22.31,10,22.31,22v.12a21.92,21.92,0,0,1-22.43,22.13C144.39,65.63,135.22,55.66,135.22,43.62Zm36.86,0V43.5c0-8.31-6.05-15.22-14.55-15.22s-14.43,6.78-14.43,15.1v.12c0,8.31,6.06,15.16,14.55,15.16S172.08,51.94,172.08,43.62Z"></path>
</svg>
